<svg width="52" height="52" viewBox="0 0 52 52" fill="none" xmlns="http://www.w3.org/2000/svg">
<path fill-rule="evenodd" clip-rule="evenodd" d="M8.66667 19.5C7.47006 19.5 6.5 20.4701 6.5 21.6667V30.3333C6.5 31.53 7.47006 32.5 8.66667 32.5C9.86327 32.5 10.8333 31.53 10.8333 30.3333V21.6667C10.8333 20.4701 9.86327 19.5 8.66667 19.5ZM43.3333 19.5C42.1367 19.5 41.1667 20.4701 41.1667 21.6667V30.3333C41.1667 31.53 42.1367 32.5 43.3333 32.5C44.53 32.5 45.5 31.53 45.5 30.3333V21.6667C45.5 20.4701 44.53 19.5 43.3333 19.5Z" fill="white"/>
<path fill-rule="evenodd" clip-rule="evenodd" d="M15.1667 19.5H36.8333V34.6667C36.8333 37.06 34.8933 39 32.5 39V43.3333C32.5 44.53 31.53 45.5 30.3333 45.5C29.1367 45.5 28.1667 44.53 28.1667 43.3333V39H23.8333V43.3333C23.8333 44.53 22.8633 45.5 21.6667 45.5C20.4701 45.5 19.5 44.53 19.5 43.3333V39C17.1068 39 15.1667 37.06 15.1667 34.6667V19.5Z" fill="white" fill-opacity="0.4"/>
<path fill-rule="evenodd" clip-rule="evenodd" d="M18.531 6.72921C19.6013 6.19407 20.9028 6.6279 21.4379 7.69819L22.2549 9.33197C23.4219 8.90195 24.6835 8.66715 26 8.66715C27.3165 8.66715 28.5781 8.90195 29.7451 9.33197L30.5621 7.69819C31.0973 6.6279 32.3986 6.19407 33.4689 6.72921C34.5393 7.26436 34.973 8.56581 34.4379 9.6361L33.4421 11.6279C35.5303 13.6027 36.8333 16.3994 36.8333 19.5005H15.1667C15.1667 16.3994 16.4696 13.6027 18.558 11.6279L17.5621 9.6361C17.0269 8.56581 17.4608 7.26436 18.531 6.72921Z" fill="white"/>
</svg>
