<svg width="1095" height="913" viewBox="0 0 1095 913" fill="none" xmlns="http://www.w3.org/2000/svg">
<path d="M0.670916 276.227C30.8088 284.175 61.4333 289.349 92.6418 289.982C122.587 290.419 152.47 287.111 181.596 280.136C211.409 273.161 239.828 262.504 268.051 250.793C293.664 240.198 318.584 228.003 342.666 214.28C391.323 186.207 436.548 152.566 477.427 114.037C482.682 109.138 487.862 104.175 492.966 99.1466C498.804 93.6286 504.922 88.4148 511.296 83.5261L519.811 76.7135C522.148 74.7001 524.19 72.3686 525.878 69.7873C528.392 66.4134 532.366 63.7694 535.61 61.0444L545.132 52.9341C569.106 32.5285 593.28 12.3609 617.654 -7.56879C629.991 -17.3651 643.048 -26.2195 656.713 -34.057C670.241 -42.0538 683.915 -50.0343 697.784 -57.4472C725.537 -72.289 755.773 -81.5672 785.716 -90.8778C793.258 -93.2298 800.801 -95.5656 808.327 -97.9987C809.56 -98.388 809.041 -100.351 807.792 -99.9451C777.849 -90.3101 747.451 -81.8754 718.417 -69.6126C704.879 -63.7047 691.754 -56.8929 679.13 -49.2233C665.927 -41.3888 652.415 -34.1544 639.471 -25.8332C626.527 -17.512 614.929 -7.99053 603.104 1.74184C591.279 11.4742 579.39 21.3526 567.614 31.2634C555.416 41.5256 543.256 51.8527 531.133 62.2447C528.558 64.1699 526.207 66.379 524.126 68.8303C523.159 70.4326 522.074 71.9615 520.882 73.4045C519.329 74.7863 517.705 76.0857 516.016 77.2974C509.738 82.3096 503.234 87.1433 497.151 92.3826C491.717 97.0703 486.819 102.488 481.612 107.452C476.405 112.415 471.198 117.184 465.894 122.05C455.383 131.555 444.618 140.747 433.599 149.625C411.7 167.349 388.755 183.739 364.888 198.709C341.178 213.581 316.537 226.915 291.117 238.628C263.933 251.424 235.897 262.323 207.208 271.247C177.927 280.248 147.679 285.731 117.102 287.581C85.8264 289.15 54.481 286.532 23.8988 279.795C16.3076 278.173 8.78122 276.308 1.2873 274.329C1.02918 274.256 0.752582 274.288 0.518352 274.419C0.284121 274.55 0.111446 274.768 0.0383128 275.027C-0.0348208 275.285 -0.00242194 275.561 0.128382 275.796C0.259186 276.03 0.47768 276.202 0.735799 276.276L0.670916 276.227Z" fill="url(#paint0_linear)"/>
<path d="M693.818 911.758C698.529 863.115 715.151 816.381 742.213 775.688C749.244 765.346 756.834 755.396 764.949 745.882C768.88 741.145 772.423 736.163 776.685 731.699C780.947 727.235 785.324 722.699 789.644 718.279C806.923 700.871 825.425 684.47 846.29 671.41C848.593 669.97 850.926 668.53 853.287 667.191C855.937 665.665 859.047 664.441 861.509 662.656C862.565 661.741 863.556 660.755 864.475 659.704C865.718 658.551 867.091 657.546 868.565 656.709C871.545 654.938 874.526 653.181 877.535 651.467C888.594 645.113 899.883 639.108 911.402 633.454C934.44 622.135 958.036 611.989 982.101 603.058C1005.73 594.203 1029.72 586.312 1053.82 578.911C1065.99 575.167 1078.19 571.553 1090.41 567.982C1103.1 564.281 1115.95 561.157 1128.63 557.399C1135.08 555.498 1141.45 553.41 1147.76 551.049C1150.9 549.882 1154.34 547.838 1157.71 547.636C1160.66 547.463 1163.07 547.838 1165.89 546.772C1178.98 541.848 1192.02 536.693 1205.07 531.725C1217.45 526.945 1230.02 522.553 1242.08 516.966C1254.13 511.379 1265.53 505.159 1276.91 498.608C1279.46 497.268 1281.85 495.624 1284.01 493.712C1286.21 491.476 1288.91 489.789 1291.88 488.787C1292.98 488.442 1292.52 486.7 1291.39 487.045C1285.85 488.802 1282.41 493.352 1277.51 496.188C1271.64 499.572 1265.73 502.913 1259.74 506.109C1247.55 512.638 1234.95 518.38 1222.02 523.302C1208.97 528.255 1195.98 533.381 1182.97 538.349C1179.68 539.616 1176.42 540.869 1173.13 542.107C1169.85 543.345 1165.93 545.491 1162.41 545.851C1159.87 546.095 1157.31 545.376 1154.89 546.326C1151.46 547.679 1148.05 549.047 1144.59 550.3C1131.81 554.922 1118.68 558.176 1105.59 561.718C1093.06 565.088 1080.63 568.918 1068.15 572.662C1043.57 580.034 1019.09 587.781 994.931 596.42C971.172 604.93 947.716 614.318 924.836 624.973C913.039 630.474 901.404 636.32 889.933 642.511C884.173 645.612 878.486 648.804 872.87 652.087C870.091 653.485 867.411 655.073 864.85 656.838C863.741 657.717 862.834 658.897 861.797 659.862C860.305 661.146 858.655 662.235 856.887 663.102C835.749 674.621 816.815 689.74 799.363 706.299C790.306 714.938 781.235 723.693 772.97 733.052C768.78 737.775 765.266 743.06 760.975 747.696C757 752.143 753.279 756.811 749.831 761.678C720.733 800.843 701.603 846.501 694.092 894.71C693.228 900.383 692.551 906.085 692.004 911.787C691.903 912.939 693.703 912.939 693.804 911.787L693.818 911.758Z" fill="url(#paint1_linear)"/>
<path d="M748.723 -3H747.101C754.602 89.8991 795.035 177.065 861.115 242.791C930.401 312.472 1023.38 353.518 1121.55 357.763V356.14C924.505 347.17 764.927 192.118 748.723 -3Z" fill="white" fill-opacity="0.13"/>
<path d="M234.845 168.689C236.968 168.689 238.689 166.968 238.689 164.845C238.689 162.721 236.968 161 234.845 161C232.721 161 231 162.721 231 164.845C231 166.968 232.721 168.689 234.845 168.689Z" fill="white"/>
<path d="M809.096 270.69C813.217 270.69 816.557 267.349 816.557 263.228C816.557 259.107 813.217 255.767 809.096 255.767C804.975 255.767 801.634 259.107 801.634 263.228C801.634 267.349 804.975 270.69 809.096 270.69Z" fill="white"/>
<path d="M962.607 146.409C962.607 147.146 962.388 147.868 961.978 148.481C961.568 149.095 960.986 149.573 960.304 149.855C959.622 150.138 958.872 150.212 958.148 150.068C957.425 149.924 956.76 149.568 956.238 149.047C955.716 148.525 955.361 147.86 955.217 147.136C955.073 146.413 955.147 145.663 955.429 144.981C955.712 144.299 956.19 143.716 956.804 143.307C957.417 142.897 958.138 142.678 958.876 142.678C959.367 142.676 959.853 142.771 960.306 142.957C960.76 143.144 961.172 143.419 961.519 143.766C961.866 144.113 962.141 144.525 962.327 144.978C962.514 145.432 962.609 145.918 962.607 146.409Z" fill="#0698FC"/>
<path d="M587.798 198.59C589.859 198.59 591.529 196.92 591.529 194.859C591.529 192.799 589.859 191.128 587.798 191.128C585.738 191.128 584.067 192.799 584.067 194.859C584.067 196.92 585.738 198.59 587.798 198.59Z" fill="white"/>
<path d="M730.625 617H726.68V630.29H730.625V617Z" fill="#9256DA"/>
<path d="M735.29 625.625V621.68H722V625.625H735.29Z" fill="#9256DA"/>
<path d="M717.371 488L663 542.371" stroke="#9256DA" stroke-width="1.4399" stroke-miterlimit="10"/>
<path d="M1122.01 691L1068 745.011" stroke="white" stroke-width="1.4399" stroke-miterlimit="10"/>
<path d="M752.357 138.427L691.513 199.255" stroke="white" stroke-width="1.62206" stroke-miterlimit="10"/>
<path d="M254.241 577.482C311.259 577.482 357.482 531.259 357.482 474.241C357.482 417.223 311.259 371 254.241 371C197.223 371 151 417.223 151 474.241C151 531.259 197.223 577.482 254.241 577.482Z" stroke="white" stroke-opacity="0.25" stroke-width="1.4399" stroke-miterlimit="10"/>
<path d="M963 412.5V409.5H939V412.5H963Z" fill="white"/>
<path d="M952.5 399H949.5V423H952.5V399Z" fill="white"/>
<defs>
<linearGradient id="paint0_linear" x1="583.623" y1="-226.79" x2="225.31" y2="403.105" gradientUnits="userSpaceOnUse">
<stop stop-color="white"/>
<stop offset="1" stop-color="white" stop-opacity="0"/>
</linearGradient>
<linearGradient id="paint1_linear" x1="389465" y1="63159.9" x2="311073" y2="257581" gradientUnits="userSpaceOnUse">
<stop stop-color="white"/>
<stop offset="1" stop-color="white" stop-opacity="0.04"/>
</linearGradient>
</defs>
</svg>
