<svg width="48" height="48" viewBox="0 0 48 48" fill="none" xmlns="http://www.w3.org/2000/svg">
<path d="M32 33.8594C36.7824 31.093 40 25.9222 40 20C40 11.1634 32.8366 4 24 4C15.1634 4 8 11.1634 8 20C8 25.9222 11.2176 31.093 16 33.8594V36C16 37.1046 16.8954 38 18 38H30C31.1046 38 32 37.1046 32 36V33.8594Z" fill="white" fill-opacity="0.4"/>
<path d="M18 38H30V40C30 42.2092 28.2092 44 26 44H22C19.7909 44 18 42.2092 18 40V38Z" fill="white"/>
<path d="M21.4142 20.5858C20.6332 19.8047 19.3668 19.8047 18.5858 20.5858C17.8047 21.3668 17.8047 22.6332 18.5858 23.4142L22 26.8284V38H26V26.8284L29.4142 23.4142C30.1952 22.6332 30.1952 21.3668 29.4142 20.5858C28.6332 19.8047 27.3668 19.8047 26.5858 20.5858L24 23.1716L21.4142 20.5858Z" fill="white"/>
</svg>
