<svg width="13" height="10" viewBox="0 0 13 10" fill="none" xmlns="http://www.w3.org/2000/svg">
<path d="M8.60304 6.81704C7.96469 6.81704 7.44132 6.22139 7.44132 5.49655C7.44132 4.7717 7.95374 4.17497 8.60304 4.17497C9.25233 4.17497 9.77571 4.77061 9.76476 5.49655C9.75381 6.22249 9.25233 6.81704 8.60304 6.81704ZM4.31201 6.81704C3.67367 6.81704 3.15029 6.22139 3.15029 5.49655C3.15029 4.7717 3.66272 4.17497 4.31201 4.17497C4.9613 4.17497 5.48468 4.77061 5.47373 5.49436C5.46278 6.21811 4.9613 6.81704 4.31201 6.81704ZM10.9418 0.837621C10.0946 0.441193 9.19839 0.159504 8.27675 0C8.15106 0.230255 8.03704 0.466694 7.93513 0.70842C6.95538 0.558686 5.95857 0.558686 4.97882 0.70842C4.87622 0.466456 4.7611 0.229996 4.63392 0C3.71245 0.159888 2.81652 0.442329 1.96995 0.83981C0.28376 3.38881 -0.17392 5.87649 0.0549203 8.32366C1.03919 9.06705 2.14507 9.63388 3.32328 9.9989C3.58804 9.63463 3.82207 9.24898 4.02295 8.84594C3.64018 8.70026 3.27119 8.52071 2.92035 8.30943C3.01233 8.24045 3.1032 8.16928 3.1908 8.09044C4.21008 8.58116 5.32681 8.83598 6.45807 8.83598C7.58933 8.83598 8.70606 8.58116 9.72534 8.09044C9.81403 8.1638 9.90382 8.23607 9.99579 8.30943C9.64433 8.52129 9.27459 8.70121 8.89101 8.84704C9.09174 9.25015 9.32577 9.63582 9.59067 10C10.7699 9.63527 11.8766 9.06802 12.8612 8.32366C13.1295 5.48451 12.4035 3.02201 10.9418 0.838717V0.837621Z" fill="white" fill-opacity="0.7"/>
</svg>
