<svg width="48" height="48" viewBox="0 0 48 48" fill="none" xmlns="http://www.w3.org/2000/svg">
<path d="M44 24C44 35.0456 35.0456 44 24 44C12.9543 44 4 35.0456 4 24C4 12.9543 12.9543 4 24 4C35.0456 4 44 12.9543 44 24Z" fill="white" fill-opacity="0.4"/>
<path fill-rule="evenodd" clip-rule="evenodd" d="M11.9532 22H4V26H11.9532C12.2568 33.2916 14.2038 38.5412 16.4798 42.0816C16.6265 42.3098 16.7746 42.531 16.9238 42.7452C19.0992 43.5564 21.4538 44 23.9122 44H23.956H24C26.4582 44 28.8128 43.5564 30.9882 42.7452C31.1374 42.531 31.2856 42.3098 31.4322 42.0816C33.7082 38.5412 35.6552 33.2916 35.9588 26H44V22H35.9588C35.6552 14.7084 33.7082 9.45886 31.4322 5.91848C31.2856 5.69024 31.1374 5.46906 30.9882 5.25486C28.8128 4.4435 26.4582 4 24 4L23.956 4.0001L23.9122 4C21.4538 4 19.0992 4.4435 16.9238 5.25486C16.7746 5.46906 16.6265 5.69024 16.4798 5.91848C14.2038 9.45886 12.2568 14.7084 11.9532 22ZM15.9569 22C16.2559 15.4396 18.0047 10.9434 19.8445 8.08152C20.8604 6.50116 21.902 5.42162 22.7436 4.75848C23.166 4.42562 23.517 4.21436 23.768 4.09478C23.8518 4.05492 23.914 4.0301 23.956 4.015C23.998 4.0301 24.0602 4.05492 24.144 4.09478C24.395 4.21436 24.746 4.42562 25.1684 4.75848C26.0102 5.42162 27.0516 6.50116 28.0676 8.08152C29.9074 10.9434 31.6562 15.4396 31.955 22H15.9569ZM31.955 26C31.6562 32.5604 29.9074 37.0566 28.0676 39.9184C27.0516 41.4988 26.0102 42.5784 25.1684 43.2416C24.746 43.5744 24.395 43.7856 24.144 43.9052C24.0602 43.945 23.998 43.9698 23.956 43.985C23.914 43.9698 23.8518 43.945 23.768 43.9052C23.517 43.7856 23.166 43.5744 22.7436 43.2416C21.902 42.5784 20.8604 41.4988 19.8445 39.9184C18.0047 37.0566 16.2559 32.5604 15.9569 26H31.955Z" fill="white"/>
</svg>
