<svg width="48" height="48" viewBox="0 0 48 48" fill="none" xmlns="http://www.w3.org/2000/svg">
<path d="M6 34.5494V18.8C6 14.3196 6 12.0794 6.87194 10.3681C7.63894 8.86278 8.86278 7.63894 10.3681 6.87194C12.0794 6 14.3196 6 18.8 6H29.2C33.6804 6 35.9206 6 37.632 6.87194C39.1372 7.63894 40.361 8.86278 41.128 10.3681C42 12.0794 42 14.3196 42 18.8V21.2C42 25.6804 42 27.9206 41.128 29.632C40.361 31.1372 39.1372 32.361 37.632 33.128C35.9206 34 33.6804 34 29.2 34H20.7184C19.7159 34 19.2146 34 18.7443 34.1156C18.3274 34.218 17.9296 34.387 17.5664 34.6158C17.1566 34.8742 16.8086 35.2348 16.1126 35.9562L14.2543 37.8822C11.6742 40.5564 10.3841 41.8936 9.27284 41.995C8.30896 42.083 7.36182 41.7006 6.72928 40.968C6 40.1234 6 38.2654 6 34.5494Z" fill="white" fill-opacity="0.4"/>
<path d="M16 14C14.8954 14 14 14.8954 14 16C14 17.1046 14.8954 18 16 18H32C33.1046 18 34 17.1046 34 16C34 14.8954 33.1046 14 32 14H16Z" fill="white"/>
<path d="M16 22C14.8954 22 14 22.8954 14 24C14 25.1046 14.8954 26 16 26H22C23.1046 26 24 25.1046 24 24C24 22.8954 23.1046 22 22 22H16Z" fill="white"/>
</svg>
