<svg width="48" height="48" viewBox="0 0 48 48" fill="none" xmlns="http://www.w3.org/2000/svg">
<path d="M8 8C5.79086 8 4 9.79086 4 12V32C4 34.2092 5.79086 36 8 36H28V12C28 9.79086 26.2092 8 24 8H8Z" fill="white" fill-opacity="0.4"/>
<path d="M33.2252 14H28V36H40C42.2092 36 44 34.2092 44 32V24.1772C44 23.0522 43.5262 21.9792 42.695 21.2212L35.9202 15.0442C35.1834 14.3724 34.2222 14 33.2252 14Z" fill="white"/>
<path fill-rule="evenodd" clip-rule="evenodd" d="M14 40C16.2091 40 18 38.2092 18 36C18 33.7908 16.2091 32 14 32C11.7909 32 10 33.7908 10 36C10 38.2092 11.7909 40 14 40ZM38.8284 38.8284C39.5786 38.0782 40 37.0608 40 36H36H32C32 37.0608 32.4214 38.0782 33.1716 38.8284C33.9218 39.5786 34.9392 40 36 40C37.0608 40 38.0782 39.5786 38.8284 38.8284Z" fill="white"/>
</svg>
