<svg width="14" height="12" viewBox="0 0 14 12" fill="none" xmlns="http://www.w3.org/2000/svg">
<path d="M12.3999 3.75375C12.3799 3.60042 12.3599 3.48042 12.3465 3.39375L13.5999 1.50708C13.6732 1.38708 13.6732 1.22708 13.5865 1.11375C13.4999 1.00042 13.3465 0.953748 13.2132 0.993748L11.4599 1.57375C11.3665 1.43375 11.2265 1.25375 11.0465 1.06708C10.6732 0.693748 10.0932 0.300415 9.30654 0.300415C8.48654 0.300415 7.88654 0.527082 7.45321 0.900415C7.02654 1.27108 6.79988 1.75375 6.68654 2.21375C6.56654 2.66708 6.55988 3.12042 6.57321 3.45375C6.57321 3.54708 6.57988 3.63375 6.58654 3.71375C5.74654 3.88708 4.87321 3.61375 4.01321 3.10708C3.06654 2.54042 2.19988 1.72708 1.51988 1.04708C1.41988 0.947082 1.27988 0.920415 1.15988 0.967082C1.03321 1.01375 0.953211 1.12708 0.946544 1.26041C0.859877 3.97375 1.41988 7.26708 3.95321 8.93375C2.88654 9.50708 1.83988 9.77375 0.566544 9.93375C0.419877 9.94708 0.299877 10.0604 0.273211 10.2071C0.246544 10.3471 0.319877 10.4937 0.446544 10.5604C3.87988 12.2737 8.33988 12.1537 10.8599 8.79375C11.8999 7.40042 12.2532 6.00042 12.3399 4.95375C12.3799 4.42708 12.3599 3.98708 12.3265 3.68042L12.3999 3.75375Z" fill="white" fill-opacity="0.7"/>
</svg>
